<svg width="30" height="30" viewBox="0 0 30 30" fill="none" xmlns="http://www.w3.org/2000/svg">
<path d="M29.0153 4.07004H25.8315V3.28231C25.8315 2.7385 25.3907 2.29764 24.8469 2.29764C24.303 2.29764 23.8622 2.7385 23.8622 3.28231V4.07004H20.9081V3.28231C20.9081 2.7385 20.4673 2.29764 19.9235 2.29764C19.3796 2.29764 18.9388 2.7385 18.9388 3.28231V4.07004H15.9847V3.28231C15.9847 2.7385 15.5439 2.29764 15.0001 2.29764C14.4563 2.29764 14.0154 2.7385 14.0154 3.28231V4.07004H11.0613V3.28231C11.0613 2.7385 10.6205 2.29764 10.0767 2.29764C9.53285 2.29764 9.09199 2.7385 9.09199 3.28231V4.07004H6.13793V3.28231C6.13793 2.7385 5.69707 2.29764 5.15326 2.29764C4.60945 2.29764 4.16859 2.7385 4.16859 3.28231V4.07004H0.984668C0.440859 4.07004 0 4.5109 0 5.05471V26.7178C0 27.2616 0.440859 27.7024 0.984668 27.7024H29.0153C29.5591 27.7024 30 27.2616 30 26.7178V5.05471C30 4.5109 29.5591 4.07004 29.0153 4.07004ZM28.0307 25.733H1.96934V6.03938H4.16848V6.66451C4.16848 7.20832 4.60934 7.64918 5.15314 7.64918C5.69695 7.64918 6.13781 7.20832 6.13781 6.66451V6.03938H9.09188V6.66451C9.09188 7.20832 9.53273 7.64918 10.0765 7.64918C10.6204 7.64918 11.0612 7.20832 11.0612 6.66451V6.03938H14.0153V6.66451C14.0153 7.20832 14.4561 7.64918 14.9999 7.64918C15.5437 7.64918 15.9846 7.20832 15.9846 6.66451V6.03938H18.9387V6.66451C18.9387 7.20832 19.3795 7.64918 19.9233 7.64918C20.4671 7.64918 20.908 7.20832 20.908 6.66451V6.03938H23.8621V6.66451C23.8621 7.20832 24.3029 7.64918 24.8467 7.64918C25.3905 7.64918 25.8314 7.20832 25.8314 6.66451V6.03938H28.0305V25.733H28.0307Z" fill="#2EC4B6"/>
<path d="M16.6083 18.9059H13.3917C12.8479 18.9059 12.407 19.3468 12.407 19.8906V23.1072C12.407 23.651 12.8479 24.0919 13.3917 24.0919H16.6083C17.1521 24.0919 17.593 23.651 17.593 23.1072V19.8906C17.593 19.3468 17.1521 18.9059 16.6083 18.9059ZM15.6236 22.1225H14.3763V20.8752H15.6236V22.1225Z" fill="#2EC4B6"/>
<path d="M23.9114 18.9059H20.6947C20.1509 18.9059 19.7101 19.3468 19.7101 19.8906V23.1072C19.7101 23.651 20.1509 24.0919 20.6947 24.0919H23.9113C24.4552 24.0919 24.896 23.651 24.896 23.1072V19.8906C24.8961 19.3468 24.4552 18.9059 23.9114 18.9059ZM22.9267 22.1225H21.6794V20.8752H22.9267V22.1225Z" fill="#2EC4B6"/>
<path d="M9.30528 18.9059H6.08866C5.54485 18.9059 5.10399 19.3468 5.10399 19.8906V23.1072C5.10399 23.651 5.54485 24.0919 6.08866 24.0919H9.30528C9.84909 24.0919 10.2899 23.651 10.2899 23.1072V19.8906C10.2899 19.3468 9.84909 18.9059 9.30528 18.9059ZM8.32055 22.1225H7.07327V20.8752H8.32055V22.1225Z" fill="#2EC4B6"/>
<path d="M16.6083 11.2254H13.3917C12.8479 11.2254 12.407 11.6662 12.407 12.2101V15.4267C12.407 15.9705 12.8479 16.4113 13.3917 16.4113H16.6083C17.1521 16.4113 17.593 15.9705 17.593 15.4267V12.2101C17.593 11.6662 17.1521 11.2254 16.6083 11.2254ZM15.6236 14.442H14.3763V13.1947H15.6236V14.442Z" fill="#2EC4B6"/>
<path d="M23.9114 11.2254H20.6947C20.1509 11.2254 19.7101 11.6662 19.7101 12.2101V15.4267C19.7101 15.9705 20.1509 16.4113 20.6947 16.4113H23.9113C24.4552 16.4113 24.896 15.9705 24.896 15.4267V12.2101C24.8961 11.6662 24.4552 11.2254 23.9114 11.2254ZM22.9267 14.442H21.6794V13.1947H22.9267V14.442Z" fill="#2EC4B6"/>
<path d="M9.30528 11.2254H6.08866C5.54485 11.2254 5.10399 11.6662 5.10399 12.2101V15.4267C5.10399 15.9705 5.54485 16.4113 6.08866 16.4113H9.30528C9.84909 16.4113 10.2899 15.9705 10.2899 15.4267V12.2101C10.2899 11.6662 9.84909 11.2254 9.30528 11.2254ZM8.32055 14.442H7.07327V13.1947H8.32055V14.442Z" fill="#2EC4B6"/>
</svg>
