<svg width="30" height="30" viewBox="0 0 30 30" fill="none" xmlns="http://www.w3.org/2000/svg">
<path d="M28.5546 6.81744C28.3618 4.98859 27.4703 3.34602 26.0445 2.19239L25.2242 1.52843C24.0062 0.542757 22.4722 0 20.9043 0C18.8134 0 16.8626 0.9288 15.5521 2.5484L2.93854 18.1359C1.78298 19.5635 1.25259 21.356 1.44521 23.1828C1.63783 25.0095 2.5304 26.6519 3.95842 27.8076L4.77878 28.4716C5.99659 29.4572 7.53056 30 9.09803 30C9.34005 30 9.58488 29.9871 9.82569 29.9615C11.6414 29.7701 13.2762 28.8878 14.4244 27.4828C14.4282 27.4783 14.4305 27.4756 22.934 16.9686C24.4485 15.0968 24.1579 12.3417 22.2864 10.8271L21.8564 10.4794C21.083 9.85349 20.1088 9.50881 19.1134 9.50881C17.7858 9.50881 16.5472 10.0986 15.7151 11.127L7.22139 21.6229C6.66643 22.3089 6.77286 23.3186 7.45883 23.8737C7.7427 24.1033 8.09991 24.2298 8.46458 24.2298C8.95039 24.2298 9.40415 24.0137 9.70962 23.6363L18.2031 13.1404C18.4253 12.8659 18.7562 12.7085 19.111 12.7085C19.3805 12.7085 19.6336 12.798 19.843 12.9675L20.273 13.3156C20.5146 13.5111 20.6657 13.7895 20.6983 14.0997C20.731 14.4099 20.6414 14.7138 20.4458 14.9553L11.962 25.4393C11.2615 26.3044 10.2187 26.8004 9.101 26.8005C8.26305 26.8005 7.44309 26.5104 6.79213 25.9835L5.97177 25.3197C5.20836 24.7018 4.73115 23.8236 4.62826 22.8472C4.52528 21.8707 4.80875 20.9123 5.42653 20.1491L18.0401 4.56175C18.7407 3.69616 19.7838 3.19967 20.902 3.19967C21.74 3.19967 22.56 3.48973 23.2108 4.0165L24.0311 4.68031C25.607 5.95563 25.8516 8.27518 24.5764 9.851C24.3075 10.1834 24.1841 10.6004 24.229 11.0256C24.2739 11.4507 24.4816 11.8329 24.8137 12.1017C25.0977 12.3314 25.4549 12.458 25.8196 12.458C26.3054 12.458 26.759 12.2417 27.0644 11.8644C28.2183 10.4387 28.7476 8.6462 28.5546 6.81744Z" fill="#2EC4B6"/>
</svg>
