<svg width="30" height="30" viewBox="0 0 30 30" fill="none" xmlns="http://www.w3.org/2000/svg">
<g clip-path="url(#clip0_8_90)">
<path d="M27.8566 0H2.14336C0.961496 0 0 0.961496 0 2.14336V27.8566C0 29.0385 0.961496 30 2.14336 30C2.34469 30 27.6051 30 27.8566 30C29.0385 30 30 29.0385 30 27.8566V2.14336C29.9999 0.961496 29.0384 0 27.8566 0ZM24.9777 28.0434H23.0212V20.196H6.97869V28.0434H5.02217V19.2177C5.02217 18.6775 5.46017 18.2395 6.00043 18.2395H23.9994C24.5397 18.2395 24.9777 18.6775 24.9777 19.2177V28.0434ZM24.9902 10.7822C24.9902 11.3225 24.5522 11.7605 24.012 11.7605H6.01289C5.47263 11.7605 5.03463 11.3225 5.03463 10.7822V1.95651H14.0747V2.00158V6.92123C14.0747 7.46149 14.5127 7.89949 15.053 7.89949H20.3352C20.8755 7.89949 21.3135 7.46149 21.3135 6.92123V2.00158V1.95651H24.9902V10.7822Z" fill="#CDD3D4"/>
</g>
<defs>
<clipPath id="clip0_8_90">
<rect width="30" height="30" fill="white"/>
</clipPath>
</defs>
</svg>
